<?xml version="1.0" standalone="no"?>
<!DOCTYPE svg PUBLIC "-//W3C//DTD SVG 20010904//EN"
 "http://www.w3.org/TR/2001/REC-SVG-20010904/DTD/svg10.dtd">
<svg version="1.0" xmlns="http://www.w3.org/2000/svg"
 width="768.000000pt" height="768.000000pt" viewBox="0 0 768.000000 768.000000"
 preserveAspectRatio="xMidYMid meet">

<g transform="translate(0.000000,768.000000) scale(0.100000,-0.100000)"
fill="#000000" stroke="none">
<path d="M3620 7034 c-595 -53 -1078 -217 -1550 -529 -698 -462 -1200 -1205
-1364 -2017 -49 -245 -60 -365 -60 -648 0 -282 11 -404 59 -643 99 -490 320
-959 641 -1362 112 -141 359 -386 494 -492 489 -383 988 -594 1605 -679 183
-25 607 -25 790 0 533 73 991 247 1410 535 762 524 1243 1313 1371 2246 25
183 25 608 0 790 -72 523 -232 954 -512 1375 -120 182 -239 326 -404 490 -510
511 -1138 820 -1860 915 -119 16 -518 28 -620 19z m-889 -1490 c30 -9 74 -27
99 -41 27 -15 238 -218 528 -507 l482 -481 483 481 c289 289 500 492 527 507
145 82 351 76 490 -13 99 -64 184 -182 210 -293 26 -112 4 -262 -52 -357 -12
-19 -237 -252 -502 -518 l-481 -482 481 -483 c265 -265 490 -498 502 -517 56
-95 78 -245 52 -357 -26 -111 -108 -227 -206 -289 -152 -97 -357 -100 -507 -8
-23 14 -257 240 -519 502 l-478 477 -477 -477 c-263 -262 -497 -488 -520 -502
-150 -92 -355 -89 -507 8 -98 62 -180 178 -206 289 -25 110 -6 253 47 347 15
27 218 238 507 528 l481 482 -481 483 c-265 265 -490 498 -502 517 -56 96 -78
245 -51 359 35 153 165 293 317 342 73 23 209 25 283 3z"/>
</g>
</svg>
