<?xml version="1.0" standalone="no"?>
<!DOCTYPE svg PUBLIC "-//W3C//DTD SVG 20010904//EN"
 "http://www.w3.org/TR/2001/REC-SVG-20010904/DTD/svg10.dtd">
<svg version="1.0" xmlns="http://www.w3.org/2000/svg"
 width="256.000000pt" height="256.000000pt" viewBox="0 0 256.000000 256.000000"
 preserveAspectRatio="xMidYMid meet">

<g transform="translate(0.000000,256.000000) scale(0.100000,-0.100000)"
fill="#ffffff" stroke="none">
<path fill="#ffffff" d="M1295 2386 c-102 -32 -62 9 -730 -749 -348 -395 -508 -583 -525 -620
-34 -70 -35 -181 -2 -247 15 -31 105 -128 289 -312 252 -250 271 -267 322
-282 48 -14 164 -16 983 -16 l928 0 0 80 0 80 -631 2 -630 3 516 580 c380 426
524 595 543 635 21 43 27 70 27 125 0 119 -16 142 -317 442 -315 313 -278 293
-552 292 -116 0 -195 -5 -221 -13z m443 -173 c-101 -111 -528 -606 -528 -614
0 -5 106 -135 235 -290 130 -154 238 -286 241 -294 6 -16 -527 -632 -572 -661
l-26 -17 -224 224 c-124 123 -232 236 -240 251 -19 37 -18 98 3 128 10 14 140
166 290 337 150 172 273 315 273 318 0 3 -33 5 -74 5 l-74 0 -253 -277 c-158
-174 -260 -295 -273 -323 -29 -64 -28 -169 3 -230 14 -28 100 -122 224 -247
l201 -203 -117 0 c-79 0 -128 5 -150 14 -41 18 -503 482 -517 519 -22 61 -5
85 298 422 l288 320 146 3 146 3 279 319 278 319 84 1 85 0 -26 -27z"/>
</g>
</svg>
