<?xml version="1.0" standalone="no"?>
<!DOCTYPE svg PUBLIC "-//W3C//DTD SVG 20010904//EN"
 "http://www.w3.org/TR/2001/REC-SVG-20010904/DTD/svg10.dtd">
<svg version="1.0" xmlns="http://www.w3.org/2000/svg"
 width="818.000000pt" height="980.000000pt" viewBox="0 0 818.000000 980.000000"
 preserveAspectRatio="xMidYMid meet">

<g transform="translate(0.000000,980.000000) scale(0.100000,-0.100000)"
fill="#000000" stroke="none">
<path fill="#fff" d="M3820 8986 l0 -814 -127 -6 c-189 -10 -343 -25 -483 -47 -1617 -255
-2843 -1540 -3139 -3289 -46 -271 -55 -400 -55 -765 -1 -307 2 -370 22 -515
87 -642 300 -1213 645 -1730 327 -490 779 -922 1287 -1230 947 -574 2101 -737
3186 -450 466 123 954 357 1346 643 309 225 632 544 864 852 383 507 643 1111
749 1740 32 189 55 426 55 570 l0 112 -247 7 c-137 3 -323 9 -415 13 l-168 6
0 -104 c0 -395 -137 -895 -350 -1283 -499 -904 -1423 -1499 -2483 -1597 -185
-17 -574 -7 -747 20 -706 108 -1306 407 -1790 891 -462 461 -744 1014 -845
1660 -26 159 -31 562 -11 770 61 641 258 1179 601 1638 92 125 333 370 455
464 346 266 753 437 1202 502 94 14 345 35 420 36 l28 0 2 -816 3 -817 1615
1078 c888 592 1621 1083 1628 1089 10 10 -328 239 -1618 1099 l-1630 1087 0
-814z"/>
</g>
</svg>
